Coordinates
version=1
nRows=32
nColumns=12
inDegrees=yes

Units are S.I. units (second, meters, Newtons, ...)
Angles are in degrees

endheader
time	SC_y	SC_z	SC_x	AC_y	AC_z	AC_x	GH_y	GH_z	GH_yy	EL_x	PS_y
       0.0              -11.46          37.12          21.53          34.84         -11.09          19.42         -42.95          -16.8         -124.7          69.56          72.49
   0.01808              -11.46          37.12          21.53          34.84         -11.09          19.42         -42.97         -16.79         -124.7          69.56          72.48
   0.03616              -11.46          37.12          21.54          34.85         -11.09          19.41         -42.99         -16.78         -124.6          69.56          72.47
   0.05424              -11.46          37.11          21.54          34.85         -11.09          19.41         -43.01         -16.77         -124.6          69.55          72.46
   0.07232              -11.47          37.11          21.54          34.85         -11.08          19.41         -43.03         -16.77         -124.6          69.55          72.45
    0.0904              -11.47           37.1          21.55          34.86         -11.08          19.41         -43.06         -16.76         -124.5          69.55          72.44
    0.1085              -11.47           37.1          21.55          34.86         -11.08           19.4         -43.08         -16.75         -124.5          69.55          72.43
    0.1266              -11.47           37.1          21.55          34.86         -11.08           19.4         -43.11         -16.74         -124.5          69.54          72.42
    0.1446              -11.47          37.09          21.56          34.87         -11.08           19.4         -43.14         -16.73         -124.4          69.54          72.41
    0.1627              -11.47          37.09          21.56          34.87         -11.08          19.39         -43.18         -16.72         -124.4          69.53          72.39
    0.1808              -11.47          37.08          21.56          34.88         -11.07          19.39         -43.21         -16.71         -124.3          69.53          72.38
    0.1989              -11.47          37.07          21.57          34.88         -11.07          19.39         -43.25         -16.69         -124.3          69.53          72.36
     0.217              -11.47          37.07          21.57          34.89         -11.07          19.38         -43.29         -16.68         -124.2          69.52          72.35
     0.235              -11.48          37.06          21.58          34.89         -11.07          19.38         -43.33         -16.67         -124.2          69.52          72.33
    0.2531              -11.48          37.05          21.59           34.9         -11.06          19.37         -43.38         -16.65         -124.1          69.51          72.31
    0.2712              -11.48          37.04          21.59           34.9         -11.06          19.37         -43.43         -16.63         -124.0           69.5          72.29
    0.2893              -11.48          37.03           21.6          34.91         -11.05          19.36         -43.48         -16.61         -124.0           69.5          72.26
    0.3074              -11.48          37.02          21.61          34.92         -11.05          19.36         -43.54         -16.59         -123.9          69.49          72.24
    0.3254              -11.48          37.01          21.62          34.93         -11.05          19.35         -43.61         -16.57         -123.8          69.48          72.21
    0.3435              -11.49           37.0          21.62          34.94         -11.04          19.34         -43.68         -16.55         -123.7          69.47          72.18
    0.3616              -11.49          36.99          21.63          34.95         -11.04          19.33         -43.76         -16.52         -123.6          69.46          72.15
    0.3797              -11.49          36.97          21.65          34.96         -11.03          19.32         -43.85         -16.49         -123.4          69.45          72.11
    0.3977               -11.5          36.95          21.66          34.97         -11.02          19.31         -43.94         -16.46         -123.3          69.44          72.07
    0.4158               -11.5          36.94          21.67          34.98         -11.02           19.3         -44.05         -16.42         -123.2          69.43          72.03
    0.4339               -11.5          36.92          21.69           35.0         -11.01          19.29         -44.17         -16.38         -123.0          69.42          71.98
     0.452              -11.51          36.89           21.7          35.02          -11.0          19.28          -44.3         -16.34         -122.8           69.4          71.92
    0.4701              -11.51          36.87          21.72          35.04         -10.99          19.26         -44.45         -16.29         -122.6          69.38          71.86
    0.4881              -11.52          36.84          21.74          35.06         -10.98          19.24         -44.62         -16.23         -122.4          69.36          71.79
    0.5062              -11.53          36.81          21.77          35.08         -10.97          19.22          -44.8         -16.17         -122.1          69.34          71.71
    0.5243              -11.53          36.77           21.8          35.11         -10.95           19.2         -45.02         -16.09         -121.8          69.31          71.63
    0.5424              -11.54          36.73          21.83          35.14         -10.94          19.17         -45.26         -16.01         -121.5          69.29          71.52
    0.5605              -11.55          36.68          21.86          35.18         -10.92          19.14         -45.54         -15.92         -121.1          69.25          71.41
